<svg xmlns="http://www.w3.org/2000/svg" viewBox="0 0 200 200" width="200" height="200">
  <defs>
    <!-- Enhanced gradient with more sophisticated color transitions -->
    <linearGradient id="primaryGradient" x1="0%" y1="0%" x2="100%" y2="100%">
      <stop offset="0%" style="stop-color:#00ACC1;stop-opacity:1" />
      <stop offset="50%" style="stop-color:#26C6DA;stop-opacity:1" />
      <stop offset="100%" style="stop-color:#4DD0E1;stop-opacity:1" />
    </linearGradient>

    <!-- Secondary gradient for depth -->
    <linearGradient id="secondaryGradient" x1="0%" y1="0%" x2="100%" y2="100%">
      <stop offset="0%" style="stop-color:#E8F5F8;stop-opacity:1" />
      <stop offset="50%" style="stop-color:#B2EBF2;stop-opacity:1" />
      <stop offset="100%" style="stop-color:#80DEEA;stop-opacity:1" />
    </linearGradient>

    <!-- Shadow effect -->
    <radialGradient id="shadowGradient" cx="50%" cy="50%" r="50%">
      <stop offset="0%" style="stop-color:#000000;stop-opacity:0.1" />
      <stop offset="100%" style="stop-color:#000000;stop-opacity:0" />
    </radialGradient>

    <!-- Inner glow effect -->
    <radialGradient id="glowGradient" cx="50%" cy="50%" r="50%">
      <stop offset="0%" style="stop-color:#4DD0E1;stop-opacity:0.3" />
      <stop offset="100%" style="stop-color:#00ACC1;stop-opacity:0" />
    </radialGradient>
  </defs>

  <!-- Outer glow ring -->
  <circle cx="100" cy="100" r="98" fill="url(#glowGradient)"/>

  <!-- Main background with enhanced styling -->
  <circle cx="100" cy="100" r="92" fill="url(#primaryGradient)" stroke="#ffffff" stroke-width="3" opacity="0.95"/>

  <!-- Subtle shadow for depth -->
  <ellipse cx="100" cy="160" rx="60" ry="8" fill="url(#shadowGradient)"/>

  <!-- Enhanced Shield with better proportions -->
  <path d="M100 30 L155 58 L155 142 L100 170 L45 142 L45 58 Z"
        fill="url(#secondaryGradient)"
        stroke="url(#primaryGradient)"
        stroke-width="2.5"
        stroke-linecap="round"
        stroke-linejoin="round"
        opacity="0.9"/>

  <!-- Refined Lock Symbol with better details -->
  <g transform="translate(100, 105)">
    <!-- Lock body with enhanced styling -->
    <rect x="-18" y="-8" width="36" height="28" rx="6" ry="6"
          fill="url(#primaryGradient)" stroke="#ffffff" stroke-width="2"
          filter="drop-shadow(0 2px 4px rgba(0,0,0,0.1))"/>

    <!-- Lock shackle with smooth curves -->
    <path d="M-10 -8 C-10 -15, 10 -15, 10 -8 L10 3 C10 8, 6 8, 6 5 L6 0 C6 -2, -6 -2, -6 0 L-6 5 C-6 8, -10 8, -10 3 Z"
          fill="url(#primaryGradient)" stroke="#ffffff" stroke-width="2"
          filter="drop-shadow(0 1px 2px rgba(0,0,0,0.1))"/>

    <!-- Enhanced keyhole -->
    <circle cx="0" cy="8" r="2.5" fill="#ffffff" opacity="0.9"/>
    <rect x="-0.8" y="8" width="1.6" height="6" fill="#ffffff" opacity="0.9" rx="0.5"/>
    <circle cx="0" cy="14" r="1" fill="#ffffff" opacity="0.7"/>
  </g>

  <!-- Sophisticated Circuit Pattern with better connectivity -->
  <g opacity="0.25" stroke="url(#primaryGradient)" stroke-width="1.5" fill="none" stroke-linecap="round">
    <!-- Main circuit nodes -->
    <circle cx="65" cy="75" r="8" fill="url(#secondaryGradient)" opacity="0.6"/>
    <circle cx="135" cy="75" r="8" fill="url(#secondaryGradient)" opacity="0.6"/>
    <circle cx="100" cy="125" r="8" fill="url(#secondaryGradient)" opacity="0.6"/>
    <circle cx="100" cy="45" r="6" fill="url(#secondaryGradient)" opacity="0.6"/>

    <!-- Circuit connections -->
    <path d="M73 75 L92 55" stroke-dasharray="3,2"/>
    <path d="M108 55 L127 75" stroke-dasharray="3,2"/>
    <path d="M100 51 L100 69" stroke-dasharray="2,2"/>
    <path d="M92 81 L108 81" stroke-dasharray="3,2"/>
    <path d="M100 83 L100 117" stroke-dasharray="2,2"/>
    <path d="M85 125 L95 115" stroke-dasharray="2,2"/>
    <path d="M105 115 L115 125" stroke-dasharray="2,2"/>
  </g>

  <!-- Subtle inner highlight for premium feel -->
  <circle cx="100" cy="100" r="85" fill="none" stroke="url(#secondaryGradient)" stroke-width="1" opacity="0.3"/>
</svg>
