<svg xmlns="http://www.w3.org/2000/svg" viewBox="0 0 32 32" width="32" height="32">
  <defs>
    <!-- Enhanced gradient for better visual appeal -->
    <linearGradient id="simpleGradient" x1="0%" y1="0%" x2="100%" y2="100%">
      <stop offset="0%" style="stop-color:#00ACC1;stop-opacity:1" />
      <stop offset="50%" style="stop-color:#26C6DA;stop-opacity:1" />
      <stop offset="100%" style="stop-color:#4DD0E1;stop-opacity:1" />
    </linearGradient>

    <!-- Subtle inner shadow for depth -->
    <radialGradient id="innerShadow" cx="50%" cy="50%" r="50%">
      <stop offset="0%" style="stop-color:#000000;stop-opacity:0.1" />
      <stop offset="70%" style="stop-color:#000000;stop-opacity:0.05" />
      <stop offset="100%" style="stop-color:#000000;stop-opacity:0" />
    </radialGradient>
  </defs>

  <!-- Background circle for better proportion -->
  <circle cx="16" cy="16" r="15.5" fill="url(#simpleGradient)" stroke="#ffffff" stroke-width="0.8" opacity="0.95"/>

  <!-- Refined Shield with better proportions -->
  <path d="M16 5.5 L24.5 9.5 L24.5 22.5 L16 26.5 L7.5 22.5 L7.5 9.5 Z"
        fill="#ffffff"
        stroke="url(#simpleGradient)"
        stroke-width="1.2"
        opacity="0.95"/>

  <!-- Enhanced Lock Symbol -->
  <g transform="translate(16, 16)">
    <!-- Lock body with refined proportions -->
    <rect x="-2.8" y="-1.2" width="5.6" height="4.4" rx="0.8" ry="0.8"
          fill="url(#simpleGradient)" stroke="#ffffff" stroke-width="0.6"/>

    <!-- Lock shackle with smooth curves -->
    <path d="M-1.8 -1.2 C-1.8 -2.2, 1.8 -2.2, 1.8 -1.2 L1.8 0.8 C1.8 1.5, 1.2 1.5, 1.2 1 L1.2 0.2 C1.2 -0.3, -1.2 -0.3, -1.2 0.2 L-1.2 1 C-1.2 1.5, -1.8 1.5, -1.8 0.8 Z"
          fill="url(#simpleGradient)" stroke="#ffffff" stroke-width="0.6"/>

    <!-- Refined keyhole -->
    <circle cx="0" cy="1.2" r="0.4" fill="#ffffff" opacity="0.9"/>
    <rect x="-0.15" y="1.2" width="0.3" height="1" fill="#ffffff" opacity="0.9" rx="0.05"/>
  </g>

  <!-- Subtle inner highlight for premium feel -->
  <circle cx="16" cy="16" r="14" fill="none" stroke="url(#innerShadow)" stroke-width="0.5" opacity="0.3"/>
</svg>
